<svg width="22" height="24" viewBox="0 0 22 24" fill="none" xmlns="http://www.w3.org/2000/svg">
<g clip-path="url(#clip0_8_25)">
<path d="M15.5331 10.0514C15.7479 10.1416 15.9026 10.335 15.9456 10.5627L16.8006 15.1991L21.437 16.0499C21.6647 16.0928 21.8581 16.2475 21.9483 16.4624C22.0385 16.6772 22.0127 16.9221 21.8795 17.1155L19.2026 20.9999L21.8795 24.8799C22.0127 25.0733 22.0385 25.3182 21.9483 25.5331C21.8581 25.7479 21.6647 25.9026 21.437 25.9456L16.8006 26.8006L15.9456 31.437C15.9026 31.6647 15.7479 31.8581 15.5331 31.9483C15.3182 32.0385 15.0733 32.0127 14.8799 31.8795L10.9999 29.2026L7.11977 31.8795C6.92641 32.0127 6.68149 32.0385 6.46665 31.9483C6.2518 31.8581 6.09712 31.6647 6.05415 31.437L5.19907 26.8006L0.562742 25.9456C0.335008 25.9026 0.141648 25.7479 0.0514139 25.5331C-0.0388205 25.3182 -0.0130392 25.0733 0.120164 24.8799L2.79712 20.9999L0.120164 17.1198C-0.0130392 16.9264 -0.0388205 16.6815 0.0514139 16.4666C0.141648 16.2518 0.335008 16.0971 0.562742 16.0541L5.19907 15.1991L6.05415 10.5627C6.09712 10.335 6.2518 10.1416 6.46665 10.0514C6.68149 9.96118 6.92641 9.98696 7.11977 10.1202L10.9999 12.7971L14.8799 10.1202C15.0733 9.98696 15.3182 9.96118 15.5331 10.0514ZM6.87485 20.9999C6.87485 19.9058 7.30945 18.8566 8.08304 18.083C8.85662 17.3094 9.90583 16.8749 10.9999 16.8749C12.0939 16.8749 13.1431 17.3094 13.9167 18.083C14.6903 18.8566 15.1249 19.9058 15.1249 20.9999C15.1249 22.0939 14.6903 23.1431 13.9167 23.9167C13.1431 24.6903 12.0939 25.1249 10.9999 25.1249C9.90583 25.1249 8.85662 24.6903 8.08304 23.9167C7.30945 23.1431 6.87485 22.0939 6.87485 20.9999ZM16.4999 20.9999C16.4999 19.5412 15.9204 18.1422 14.8889 17.1108C13.8575 16.0793 12.4585 15.4999 10.9999 15.4999C9.54116 15.4999 8.14221 16.0793 7.11076 17.1108C6.07931 18.1422 5.49985 19.5412 5.49985 20.9999C5.49985 22.4585 6.07931 23.8575 7.11076 24.8889C8.14221 25.9204 9.54116 26.4999 10.9999 26.4999C12.4585 26.4999 13.8575 25.9204 14.8889 24.8889C15.9204 23.8575 16.4999 22.4585 16.4999 20.9999Z" fill="black"/>
</g>
<g clip-path="url(#clip1_8_25)">
<path d="M11.7062 1.29375C11.3156 0.903122 10.6812 0.903122 10.2906 1.29375L5.29062 6.29375C4.89999 6.68437 4.89999 7.31875 5.29062 7.70937C5.68124 8.1 6.31562 8.1 6.70624 7.70937L9.99999 4.4125V14C9.99999 14.5531 10.4469 15 11 15C11.5531 15 12 14.5531 12 14V4.4125L15.2937 7.70625C15.6844 8.09687 16.3187 8.09687 16.7094 7.70625C17.1 7.31562 17.1 6.68125 16.7094 6.29062L11.7094 1.29062L11.7062 1.29375Z" fill="black"/>
</g>
<defs>
<clipPath id="clip0_8_25">
<rect width="22" height="14" fill="white" transform="translate(0 10)"/>
</clipPath>
<clipPath id="clip1_8_25">
<rect width="12" height="11" fill="white" transform="translate(5)"/>
</clipPath>
</defs>
</svg>
