<svg width="22" height="25" viewBox="0 0 22 25" fill="none" xmlns="http://www.w3.org/2000/svg">
<g clip-path="url(#clip0_8_24)">
<path d="M15.5331 11.0514C15.7479 11.1416 15.9026 11.335 15.9456 11.5627L16.8006 16.1991L21.437 17.0499C21.6647 17.0928 21.8581 17.2475 21.9483 17.4624C22.0385 17.6772 22.0127 17.9221 21.8795 18.1155L19.2026 21.9999L21.8795 25.8799C22.0127 26.0733 22.0385 26.3182 21.9483 26.5331C21.8581 26.7479 21.6647 26.9026 21.437 26.9456L16.8006 27.8006L15.9456 32.437C15.9026 32.6647 15.7479 32.8581 15.5331 32.9483C15.3182 33.0385 15.0733 33.0127 14.8799 32.8795L10.9999 30.2026L7.11977 32.8795C6.92641 33.0127 6.68149 33.0385 6.46665 32.9483C6.2518 32.8581 6.09712 32.6647 6.05415 32.437L5.19907 27.8006L0.562742 26.9456C0.335008 26.9026 0.141648 26.7479 0.0514139 26.5331C-0.0388205 26.3182 -0.0130392 26.0733 0.120164 25.8799L2.79712 21.9999L0.120164 18.1198C-0.0130392 17.9264 -0.0388205 17.6815 0.0514139 17.4666C0.141648 17.2518 0.335008 17.0971 0.562742 17.0541L5.19907 16.1991L6.05415 11.5627C6.09712 11.335 6.2518 11.1416 6.46665 11.0514C6.68149 10.9612 6.92641 10.987 7.11977 11.1202L10.9999 13.7971L14.8799 11.1202C15.0733 10.987 15.3182 10.9612 15.5331 11.0514ZM6.87485 21.9999C6.87485 20.9058 7.30945 19.8566 8.08304 19.083C8.85662 18.3094 9.90583 17.8749 10.9999 17.8749C12.0939 17.8749 13.1431 18.3094 13.9167 19.083C14.6903 19.8566 15.1249 20.9058 15.1249 21.9999C15.1249 23.0939 14.6903 24.1431 13.9167 24.9167C13.1431 25.6903 12.0939 26.1249 10.9999 26.1249C9.90583 26.1249 8.85662 25.6903 8.08304 24.9167C7.30945 24.1431 6.87485 23.0939 6.87485 21.9999ZM16.4999 21.9999C16.4999 20.5412 15.9204 19.1422 14.8889 18.1108C13.8575 17.0793 12.4585 16.4999 10.9999 16.4999C9.54116 16.4999 8.14221 17.0793 7.11076 18.1108C6.07931 19.1422 5.49985 20.5412 5.49985 21.9999C5.49985 23.4585 6.07931 24.8575 7.11076 25.8889C8.14221 26.9204 9.54116 27.4999 10.9999 27.4999C12.4585 27.4999 13.8575 26.9204 14.8889 25.8889C15.9204 24.8575 16.4999 23.4585 16.4999 21.9999Z" fill="black"/>
</g>
<g clip-path="url(#clip1_8_24)">
<path d="M11.7062 11.7063C11.3156 12.0969 10.6812 12.0969 10.2906 11.7063L5.29062 6.70625C4.89999 6.31563 4.89999 5.68125 5.29062 5.29063C5.68124 4.9 6.31562 4.9 6.70624 5.29063L9.99999 8.5875V-0.999997C9.99999 -1.55312 10.4469 -2 11 -2C11.5531 -2 12 -1.55312 12 -0.999997V8.5875L15.2937 5.29375C15.6844 4.90313 16.3187 4.90313 16.7094 5.29375C17.1 5.68438 17.1 6.31875 16.7094 6.70938L11.7094 11.7094L11.7062 11.7063Z" fill="black"/>
</g>
<defs>
<clipPath id="clip0_8_24">
<rect width="22" height="14" fill="white" transform="translate(0 11)"/>
</clipPath>
<clipPath id="clip1_8_24">
<rect width="12" height="13" fill="white" transform="matrix(1 0 0 -1 5 13)"/>
</clipPath>
</defs>
</svg>
