<svg width="37" height="42" viewBox="0 0 37 42" fill="none" xmlns="http://www.w3.org/2000/svg">
<g clip-path="url(#clip0_8_3374)">
<path d="M18.5 9.1875C17.7732 9.1875 17.1786 8.59688 17.1786 7.875V6.5625C17.1786 2.93672 20.1353 0 23.7857 0H25.1071C25.8339 0 26.4286 0.590625 26.4286 1.3125V2.625C26.4286 6.25078 23.4719 9.1875 19.8214 9.1875H18.5ZM0 23.625C0 17.366 2.94844 10.5 9.25 10.5C11.5047 10.5 14.1806 11.3449 16.0801 12.0832C17.6328 12.682 19.3754 12.682 20.9281 12.0832C22.8194 11.3531 25.5036 10.5 27.7583 10.5C34.0598 10.5 37.0083 17.366 37.0083 23.625C37.0083 34.125 30.4011 42 23.794 42C22.4312 42 20.6473 41.4586 19.5406 41.073C18.8717 40.8434 18.1449 40.8434 17.4759 41.073C16.3692 41.4586 14.5853 42 13.2225 42C6.60714 42 0 34.125 0 23.625Z" fill="#FE0000"/>
</g>
<defs>
<clipPath id="clip0_8_3374">
<rect width="37" height="42" fill="white"/>
</clipPath>
</defs>
</svg>
