<svg width="49" height="49" viewBox="0 0 49 49" fill="none" xmlns="http://www.w3.org/2000/svg">
<g clip-path="url(#clip0_8_3378)">
<path d="M33.18 0.574219C32.3091 1.62695 30.6247 4.04824 30.6247 6.89062C30.6247 10.7188 32.089 12.183 34.4528 14.5469C36.8167 16.9107 38.2809 18.375 42.1091 18.375C44.9515 18.375 47.3727 16.6906 48.4255 15.8197C48.8083 15.5039 48.9997 15.035 48.9997 14.5469C48.9997 14.0588 48.8083 13.5898 48.4255 13.2836C47.3345 12.4127 44.76 10.7188 41.3434 10.7188C38.2809 10.7188 37.5153 11.4844 37.5153 11.4844C37.5153 11.4844 38.2809 10.7188 38.2809 7.65625C38.2809 4.23965 36.587 1.66523 35.7161 0.574219C35.4099 0.191406 34.9409 0 34.4528 0C33.9647 0 33.4958 0.191406 33.18 0.574219ZM23.4087 13.0156C19.5806 13.0156 16.03 14.7479 13.6757 17.6285L19.4657 23.4186C20.0591 24.0119 20.0591 24.9881 19.4657 25.5814C18.8724 26.1748 17.8962 26.1748 17.3028 25.5814L12.0104 20.2891V20.2986L0.210245 45.7365C-0.191708 46.6074 -0.00987238 47.641 0.66962 48.3301C1.34911 49.0191 2.38271 49.1914 3.26317 48.7895L16.1544 42.8176L11.1683 37.8314C10.5749 37.2381 10.5749 36.2619 11.1683 35.6686C11.7616 35.0752 12.7378 35.0752 13.3311 35.6686L19.1116 41.4395L28.7011 36.9988C33.1417 34.9412 35.9936 30.491 35.9936 25.591C35.9841 18.643 30.3567 13.0156 23.4087 13.0156Z" fill="#FF7A00"/>
</g>
<defs>
<clipPath id="clip0_8_3378">
<rect width="49" height="49" fill="white"/>
</clipPath>
</defs>
</svg>
