<svg width="36" height="41" viewBox="0 0 36 41" fill="none" xmlns="http://www.w3.org/2000/svg">
<rect width="36" height="41" fill="white"/>
<path d="M36 7.6875C36 4.86074 33.6937 2.5625 30.8571 2.5625C30.3268 2.5625 29.8125 2.64258 29.3304 2.79473C27.5223 3.35527 25.4652 3.98789 23.625 3.51543C17.5821 1.98594 11.0571 4.39629 6.45268 8.98477C1.84821 13.5732 -0.578571 20.0836 0.95625 26.1055C1.42232 27.9393 0.795536 29.9813 0.233036 31.791C0.0803571 32.2715 0 32.784 0 33.3125C0 36.1393 2.30625 38.4375 5.14286 38.4375C5.67321 38.4375 6.1875 38.3574 6.67768 38.2053C8.48571 37.6447 10.5429 37.0121 12.383 37.4846C18.4259 39.0141 24.9509 36.6037 29.5554 32.0152C34.1598 27.4268 36.5866 20.9244 35.0438 14.9025C34.5777 13.0688 35.2045 11.0268 35.767 9.21699C35.9196 8.73652 36 8.22402 36 7.6875ZM17.0759 10.202C12.6884 11.4832 8.95179 15.2068 7.66607 19.5791C7.46518 20.2598 6.75 20.6441 6.06696 20.452C5.38393 20.2598 4.99821 19.5391 5.19107 18.8584C6.72589 13.6453 11.1134 9.26504 16.3527 7.73555C17.0357 7.53535 17.7509 7.92773 17.9518 8.6084C18.1527 9.28906 17.7589 10.0018 17.0759 10.202Z" fill="#FFE900"/>
</svg>
