<svg width="62" height="52" viewBox="0 0 62 52" fill="none" xmlns="http://www.w3.org/2000/svg">
<g clip-path="url(#clip0_8_3411)">
<path d="M6.92871 30.4987C11.558 21.7774 17.6969 17.9238 25.3453 18.9379C35.4091 20.1548 39.9378 15.997 38.9314 6.46436" stroke="currentColor" stroke-width="7" stroke-linecap="round"/>
<path d="M23.8511 47.2832C28.4804 38.5618 34.6193 34.7082 42.2677 35.7223C52.3314 36.9393 56.8601 32.7814 55.8537 23.2488" stroke="currentColor" stroke-width="7" stroke-linecap="round"/>
<path d="M24.011 36.982C25.3449 36.982 26.4263 35.8923 26.4263 34.5481C26.4263 33.2039 25.3449 32.1143 24.011 32.1143C22.6771 32.1143 21.5957 33.2039 21.5957 34.5481C21.5957 35.8923 22.6771 36.982 24.011 36.982Z" fill="currentColor" stroke="currentColor" stroke-width="1.6"/>
<path d="M17.0491 29.5921C18.383 29.5921 19.4644 28.5024 19.4644 27.1582C19.4644 25.814 18.383 24.7244 17.0491 24.7244C15.7152 24.7244 14.6338 25.814 14.6338 27.1582C14.6338 28.5024 15.7152 29.5921 17.0491 29.5921Z" fill="currentColor" stroke="currentColor" stroke-width="1.6"/>
<path d="M24.5032 26.8721C25.8371 26.8721 26.9185 25.7824 26.9185 24.4383C26.9185 23.0941 25.8371 22.0044 24.5032 22.0044C23.1693 22.0044 22.0879 23.0941 22.0879 24.4383C22.0879 25.7824 23.1693 26.8721 24.5032 26.8721Z" fill="currentColor" stroke="currentColor" stroke-width="1.6"/>
<path d="M32.3284 26.7476C33.6623 26.7476 34.7437 25.6579 34.7437 24.3137C34.7437 22.9696 33.6623 21.8799 32.3284 21.8799C30.9945 21.8799 29.9131 22.9696 29.9131 24.3137C29.9131 25.6579 30.9945 26.7476 32.3284 26.7476Z" fill="currentColor" stroke="currentColor" stroke-width="1.6"/>
<path d="M31.0515 34.1221C32.3855 34.1221 33.4668 33.0324 33.4668 31.6883C33.4668 30.3441 32.3855 29.2544 31.0515 29.2544C29.7176 29.2544 28.6362 30.3441 28.6362 31.6883C28.6362 33.0324 29.7176 34.1221 31.0515 34.1221Z" fill="currentColor" stroke="currentColor" stroke-width="1.6"/>
<path d="M38.6297 32.8353C39.9636 32.8353 41.0449 31.7456 41.0449 30.4014C41.0449 29.0572 39.9636 27.9675 38.6297 27.9675C37.2957 27.9675 36.2144 29.0572 36.2144 30.4014C36.2144 31.7456 37.2957 32.8353 38.6297 32.8353Z" fill="currentColor" stroke="currentColor" stroke-width="1.6"/>
<path d="M47.7503 31.8069C49.0842 31.8069 50.1656 30.7173 50.1656 29.3731C50.1656 28.0289 49.0842 26.9392 47.7503 26.9392C46.4163 26.9392 45.335 28.0289 45.335 29.3731C45.335 30.7173 46.4163 31.8069 47.7503 31.8069Z" fill="currentColor" stroke="currentColor" stroke-width="1.6"/>
<path d="M40.6917 24.3106C42.0256 24.3106 43.107 23.2209 43.107 21.8767C43.107 20.5325 42.0256 19.4429 40.6917 19.4429C39.3577 19.4429 38.2764 20.5325 38.2764 21.8767C38.2764 23.2209 39.3577 24.3106 40.6917 24.3106Z" fill="currentColor" stroke="currentColor" stroke-width="1.6"/>
<path d="M43.907 16.5557C45.2409 16.5557 46.3223 15.466 46.3223 14.1219C46.3223 12.7777 45.2409 11.688 43.907 11.688C42.5731 11.688 41.4917 12.7777 41.4917 14.1219C41.4917 15.466 42.5731 16.5557 43.907 16.5557Z" fill="currentColor" stroke="currentColor" stroke-width="1.6"/>
<path d="M49.6858 22.8929C51.0197 22.8929 52.1011 21.8032 52.1011 20.459C52.1011 19.1148 51.0197 18.0251 49.6858 18.0251C48.3519 18.0251 47.2705 19.1148 47.2705 20.459C47.2705 21.8032 48.3519 22.8929 49.6858 22.8929Z" fill="currentColor" stroke="currentColor" stroke-width="1.6"/>
<path d="M12.6892 37.2283C14.0232 37.2283 15.1045 36.1386 15.1045 34.7945C15.1045 33.4503 14.0232 32.3606 12.6892 32.3606C11.3553 32.3606 10.2739 33.4503 10.2739 34.7945C10.2739 36.1386 11.3553 37.2283 12.6892 37.2283Z" fill="currentColor" stroke="currentColor" stroke-width="1.6"/>
<path d="M20.5237 43.9581C21.8576 43.9581 22.939 42.8684 22.939 41.5242C22.939 40.18 21.8576 39.0903 20.5237 39.0903C19.1898 39.0903 18.1084 40.18 18.1084 41.5242C18.1084 42.8684 19.1898 43.9581 20.5237 43.9581Z" fill="currentColor" stroke="currentColor" stroke-width="1.6"/>
</g>
<defs>
<clipPath id="clip0_8_3411">
<rect width="62" height="52" fill="white"/>
</clipPath>
</defs>
</svg>
