<svg width="42" height="42" viewBox="0 0 42 42" fill="none" xmlns="http://www.w3.org/2000/svg">
<g clip-path="url(#clip0_8_3380)">
<path d="M35.134 0.246244C36.0855 -0.278756 37.2832 0.0575725 37.8082 1.00914L38.202 1.72281C39.7852 4.56929 39.8262 7.93257 38.4809 10.7462C40.6711 13.0923 42 16.2341 42 19.6877C42 21.2052 41.7457 22.6654 41.2699 24.0189C40.7695 25.438 38.932 25.356 38.2512 24.0107L37.2914 22.0912C36.9551 21.4267 36.2742 21.0002 35.5277 21.0002H29.5312C28.4402 21.0002 27.5625 20.1224 27.5625 19.0314V12.4689C27.5625 11.3779 26.6848 10.5002 25.5938 10.5002H24.191C22.4438 10.5002 21.7301 8.5396 23.3051 7.80132C24.9949 7.00562 26.8816 6.56265 28.875 6.56265C31.1965 6.56265 33.3703 7.16148 35.257 8.21968C35.7082 6.72671 35.5605 5.06968 34.7648 3.64234L34.3711 2.92867C33.8461 1.9771 34.1824 0.779447 35.134 0.254447V0.246244ZM14.0437 28.3419L21.6562 13.1252H24.9375V19.6877C24.9375 21.8615 26.7012 23.6252 28.875 23.6252H35.1258L37.0863 27.5462C30.5402 36.4138 20.0402 42.0002 8.46562 42.0002H3.64219C1.63242 42.0002 0 40.3677 0 38.358C0 36.6517 1.18945 35.1752 2.85469 34.806L6.93984 33.8955C10.0242 33.2064 12.641 31.172 14.052 28.3419H14.0437Z" fill="#287E00"/>
</g>
<defs>
<clipPath id="clip0_8_3380">
<rect width="42" height="42" fill="white"/>
</clipPath>
</defs>
</svg>
