<svg width="50" height="51" viewBox="0 0 50 51" fill="none" xmlns="http://www.w3.org/2000/svg">
<path d="M35.8362 7.57361C35.7246 7.39598 35.5607 7.25732 35.367 7.17672C35.1734 7.09613 34.9595 7.07757 34.7549 7.12359C33.5734 7.38917 32.4059 7.69404 31.2859 8.0249C29.0637 8.68344 26.8916 9.54101 24.4501 10.7244C23.2699 11.298 22.8021 11.5705 21.4077 12.3806L21.1225 12.5498C19.034 13.7541 17.504 15.0851 16.4455 16.6247C15.2837 18.3107 14.6948 20.2825 14.6948 22.4781C14.6948 25.0603 15.6906 27.3649 17.4989 28.9666C19.3218 30.5835 21.8609 31.4379 24.8361 31.4379C27.7999 31.4379 30.3434 30.5296 32.1885 28.8119C33.9854 27.1418 34.9773 24.7941 34.9773 22.2017C34.9773 20.6172 34.585 19.2227 34.206 17.8778C33.408 15.0452 32.719 12.5986 35.7721 8.74239C35.9023 8.57808 35.9783 8.37747 35.9898 8.16817C36.0013 7.95887 35.9476 7.75116 35.8362 7.57361Z" fill="currentColor"/>
<path d="M22.4907 7.57751C19.2874 5.83639 15.0407 5.11446 14.8613 5.08467C14.628 5.04638 14.3885 5.09087 14.1845 5.21043C13.9804 5.32999 13.8246 5.5171 13.7439 5.73941C13.6813 5.92213 13.6706 6.11864 13.713 6.30708C13.7554 6.49553 13.8492 6.66851 13.9841 6.80678C16.0022 8.94785 16.0669 11.1669 15.8 13.4385C15.7931 13.497 15.8046 13.5562 15.833 13.6078C15.8615 13.6595 15.9053 13.7009 15.9585 13.7263C16.0114 13.7515 16.0709 13.7595 16.1286 13.7493C16.1863 13.7391 16.2394 13.7111 16.2805 13.6692C17.3193 12.6228 18.5857 11.6714 20.1088 10.7923L20.3927 10.6275C21.7935 9.81176 22.3152 9.50752 23.5682 8.89968L23.7387 8.81728C23.7782 8.79836 23.8121 8.76953 23.8371 8.73361C23.8622 8.69769 23.8775 8.6559 23.8816 8.61231C23.8856 8.56872 23.8784 8.52482 23.8605 8.48487C23.8425 8.44493 23.8146 8.41031 23.7793 8.38438C23.3683 8.08685 22.9378 7.81729 22.4907 7.57751Z" fill="currentColor"/>
<path d="M23.4578 5.79646C23.6758 5.91499 23.9071 6.04999 24.1486 6.19514C24.8183 6.6057 25.4461 7.08103 26.0229 7.61428C26.0586 7.64761 26.1033 7.66989 26.1514 7.67843C26.1995 7.68698 26.2491 7.68143 26.2941 7.66245C27.7355 7.05358 29.2092 6.52459 30.7088 6.07788C31.0045 5.99042 31.302 5.9059 31.6012 5.82435C31.6372 5.81446 31.6705 5.79675 31.6989 5.77248C31.7272 5.74822 31.7498 5.71799 31.7652 5.68397C31.7805 5.64994 31.7881 5.61296 31.7875 5.57565C31.7868 5.53834 31.778 5.50163 31.7615 5.46814C31.2374 4.40141 30.8317 3.63638 30.8013 3.57997C30.7149 3.41765 30.5859 3.28189 30.4283 3.18722C30.2706 3.09254 30.0902 3.04251 29.9063 3.04248C29.7853 3.04248 27.797 3.0653 25.0341 4.39253C24.4604 4.66876 23.902 4.97577 23.3614 5.31222C23.3234 5.33562 23.2922 5.36866 23.271 5.40799C23.2498 5.44733 23.2394 5.49155 23.2408 5.5362C23.2423 5.58085 23.2555 5.62433 23.2791 5.66224C23.3027 5.70015 23.3359 5.73115 23.3754 5.7521L23.4578 5.79646Z" fill="currentColor"/>
<path d="M21.8777 3.85292C22.3404 3.55058 22.812 3.26853 23.288 3.00929C23.3067 2.99913 23.3225 2.98443 23.334 2.96655C23.3455 2.94867 23.3524 2.92818 23.3539 2.90697C23.3554 2.88576 23.3515 2.86451 23.3427 2.84517C23.3338 2.82584 23.3203 2.80904 23.3032 2.79633C21.6553 1.55593 20.1512 1.08499 20.0612 1.05837C19.8603 0.997031 19.6453 0.999577 19.446 1.06565C19.2466 1.13173 19.0727 1.25808 18.9482 1.42726C18.4823 2.07475 18.0734 2.76144 17.7262 3.47959C17.718 3.49645 17.7136 3.51491 17.7134 3.53365C17.7132 3.55239 17.7171 3.57095 17.7249 3.58798C17.7328 3.60502 17.7443 3.6201 17.7586 3.63216C17.773 3.64422 17.7898 3.65294 17.8079 3.6577C18.6706 3.88398 19.6714 4.18314 20.6988 4.56344C20.7174 4.57035 20.7374 4.5728 20.7571 4.5706C20.7768 4.5684 20.7957 4.5616 20.8123 4.55076L21.8777 3.85292Z" fill="currentColor"/>
<g clip-path="url(#clip0_8_3384)">
<path d="M25.1665 46.2497C35.3155 46.2497 43.5449 38.0202 43.5449 27.8713C33.396 27.8713 25.1665 36.1007 25.1665 46.2497ZM12.0974 22.2556C12.0974 25.0737 14.3845 27.3608 17.2025 27.3608C18.2848 27.3608 19.265 27.034 20.1022 26.4623L20.0614 26.8502C20.0614 29.6683 22.3485 31.9554 25.1665 31.9554C27.9845 31.9554 30.2716 29.6683 30.2716 26.8502L30.2308 26.4623C31.0476 27.034 32.0482 27.3608 33.1305 27.3608C35.9485 27.3608 38.2356 25.0737 38.2356 22.2556C38.2356 20.2136 37.0308 18.4779 35.3155 17.661C37.0308 16.8442 38.2356 15.1085 38.2356 13.0664C38.2356 10.2484 35.9485 7.96131 33.1305 7.96131C32.0482 7.96131 31.068 8.28803 30.2308 8.85981L30.2716 8.47182C30.2716 5.65379 27.9845 3.3667 25.1665 3.3667C22.3485 3.3667 20.0614 5.65379 20.0614 8.47182L20.1022 8.85981C19.2854 8.28803 18.2848 7.96131 17.2025 7.96131C14.3845 7.96131 12.0974 10.2484 12.0974 13.0664C12.0974 15.1085 13.3022 16.8442 15.0175 17.661C13.3022 18.4779 12.0974 20.2136 12.0974 22.2556ZM25.1665 12.5559C27.9845 12.5559 30.2716 14.843 30.2716 17.661C30.2716 20.4791 27.9845 22.7662 25.1665 22.7662C22.3485 22.7662 20.0614 20.4791 20.0614 17.661C20.0614 14.843 22.3485 12.5559 25.1665 12.5559ZM6.78809 27.8713C6.78809 38.0202 15.0175 46.2497 25.1665 46.2497C25.1665 36.1007 16.9371 27.8713 6.78809 27.8713Z" fill="currentColor"/>
</g>
<g clip-path="url(#clip1_8_3384)">
<path d="M25.167 46.2497C35.316 46.2497 43.5454 38.0202 43.5454 27.8713C33.3965 27.8713 25.167 36.1007 25.167 46.2497ZM12.0979 22.2556C12.0979 25.0737 14.385 27.3608 17.203 27.3608C18.2853 27.3608 19.2655 27.034 20.1027 26.4623L20.0619 26.8502C20.0619 29.6683 22.349 31.9554 25.167 31.9554C27.985 31.9554 30.2721 29.6683 30.2721 26.8502L30.2313 26.4623C31.0481 27.034 32.0487 27.3608 33.131 27.3608C35.949 27.3608 38.2361 25.0737 38.2361 22.2556C38.2361 20.2136 37.0313 18.4779 35.316 17.661C37.0313 16.8442 38.2361 15.1085 38.2361 13.0664C38.2361 10.2484 35.949 7.96131 33.131 7.96131C32.0487 7.96131 31.0685 8.28803 30.2313 8.85981L30.2721 8.47182C30.2721 5.65379 27.985 3.3667 25.167 3.3667C22.349 3.3667 20.0619 5.65379 20.0619 8.47182L20.1027 8.85981C19.2859 8.28803 18.2853 7.96131 17.203 7.96131C14.385 7.96131 12.0979 10.2484 12.0979 13.0664C12.0979 15.1085 13.3027 16.8442 15.018 17.661C13.3027 18.4779 12.0979 20.2136 12.0979 22.2556ZM25.167 12.5559C27.985 12.5559 30.2721 14.843 30.2721 17.661C30.2721 20.4791 27.985 22.7662 25.167 22.7662C22.349 22.7662 20.0619 20.4791 20.0619 17.661C20.0619 14.843 22.349 12.5559 25.167 12.5559ZM6.78857 27.8713C6.78857 38.0202 15.018 46.2497 25.167 46.2497C25.167 36.1007 16.9375 27.8713 6.78857 27.8713Z" fill="currentColor"/>
</g>
<g clip-path="url(#clip2_8_3384)">
<path d="M24.5044 45.5873C34.6534 45.5873 42.8828 37.3579 42.8828 27.2089C32.7339 27.2089 24.5044 35.4384 24.5044 45.5873ZM11.4353 21.5933C11.4353 24.4113 13.7224 26.6984 16.5404 26.6984C17.6227 26.6984 18.6029 26.3717 19.4401 25.7999L19.3993 26.1879C19.3993 29.0059 21.6864 31.293 24.5044 31.293C27.3224 31.293 29.6095 29.0059 29.6095 26.1879L29.5687 25.7999C30.3855 26.3717 31.3861 26.6984 32.4684 26.6984C35.2864 26.6984 37.5735 24.4113 37.5735 21.5933C37.5735 19.5512 36.3687 17.8155 34.6534 16.9987C36.3687 16.1819 37.5735 14.4461 37.5735 12.4041C37.5735 9.58605 35.2864 7.29895 32.4684 7.29895C31.3861 7.29895 30.4059 7.62568 29.5687 8.19745L29.6095 7.80946C29.6095 4.99144 27.3224 2.70435 24.5044 2.70435C21.6864 2.70435 19.3993 4.99144 19.3993 7.80946L19.4401 8.19745C18.6233 7.62568 17.6227 7.29895 16.5404 7.29895C13.7224 7.29895 11.4353 9.58605 11.4353 12.4041C11.4353 14.4461 12.6401 16.1819 14.3554 16.9987C12.6401 17.8155 11.4353 19.5512 11.4353 21.5933ZM24.5044 11.8936C27.3224 11.8936 29.6095 14.1807 29.6095 16.9987C29.6095 19.8167 27.3224 22.1038 24.5044 22.1038C21.6864 22.1038 19.3993 19.8167 19.3993 16.9987C19.3993 14.1807 21.6864 11.8936 24.5044 11.8936ZM6.12598 27.2089C6.12598 37.3579 14.3554 45.5873 24.5044 45.5873C24.5044 35.4384 16.275 27.2089 6.12598 27.2089Z" fill="currentColor"/>
</g>
<defs>
<clipPath id="clip0_8_3384">
<rect width="49.0091" height="17.8817" fill="white" transform="translate(0.662109 32.4521)"/>
</clipPath>
<clipPath id="clip1_8_3384">
<rect width="18.544" height="22.5177" fill="white" transform="translate(31.1274 27.8162)"/>
</clipPath>
<clipPath id="clip2_8_3384">
<rect width="19.2063" height="22.5177" fill="white" transform="translate(0 27.1538)"/>
</clipPath>
</defs>
</svg>
