<svg width="36" height="48" viewBox="0 0 36 48" fill="none" xmlns="http://www.w3.org/2000/svg">
<path d="M0 26.0679C0 30.8418 1.89642 35.4201 5.27208 38.7958C8.64773 42.1714 13.2261 44.0679 18 44.0679C18 39.294 16.1036 34.7156 12.7279 31.3399C9.35227 27.9643 4.7739 26.0679 0 26.0679ZM18 44.0679C22.7739 44.0679 27.3523 42.1714 30.7279 38.7958C34.1036 35.4201 36 30.8418 36 26.0679C31.2261 26.0679 26.6477 27.9643 23.2721 31.3399C19.8964 34.7156 18 39.294 18 44.0679ZM30 6.06787V16.0679C30 19.2505 28.7357 22.3027 26.4853 24.5532C24.2348 26.8036 21.1826 28.0679 18 28.0679C14.8174 28.0679 11.7652 26.8036 9.51472 24.5532C7.26428 22.3027 6 19.2505 6 16.0679V6.06787C7.48 6.06787 8.94 6.30787 10.32 6.84787C11.42 7.30787 12.4 7.98787 13.22 8.84787L18 4.06787L22.78 8.84787C23.6 7.98787 24.58 7.30787 25.68 6.84787C27.06 6.30787 28.52 6.06787 30 6.06787Z" fill="#2400FF"/>
</svg>
